<?xml version="1.0" encoding="utf-8"?>
<!DOCTYPE svg PUBLIC "-//W3C//DTD SVG 1.1 Tiny//EN" "http://www.w3.org/Graphics/SVG/1.1/DTD/svg11-tiny.dtd">
<svg xmlns="http://www.w3.org/2000/svg" xmlns:xlink="http://www.w3.org/1999/xlink"
	 x="0px" y="0px" width="136.6px" height="66.5px" viewBox="0 0 136.6 66.5">
	<path fill="#ffffff" d="M129.9,23.5l0.1-8.8c0-4.1-2.6-7.4-4.1-8.7l-7.4-6v1.7c0,0,4.7,3.9,5.7,5.6c1.2,2,1.9,5.2,1.9,7.5L125.9,25
		c-0.1,5.9,4.9,7.6,7.4,8.3c-2.5,0.7-7.4,2.4-7.4,8.3l0.1,10.2c0,2.3-0.7,5.5-1.9,7.5c-1,1.7-5.7,5.6-5.7,5.6v1.7l7.4-6
		c1.5-1.2,4.1-4.6,4.1-8.7l-0.1-8.8c0-4.5,2.6-6.5,6.7-7.9v-3.7C132.6,30,129.9,28,129.9,23.5z M7.7,24L0,44.3h4.1l1.6-4.2h6.9
		l1.5,4.2h4.1L10.7,24H7.7z M6.8,37L9,29.8H9l2.5,7.2H6.8z M31.7,30.5c0-4.2-2.7-6-6.6-6h-5.2v19.8h3.9v-8h0.1l4.8,8h4.7L27.7,36
		C30.3,35.5,31.7,33,31.7,30.5z M24.2,33.6h-0.5v-6h0.5c2,0,3.6,0.5,3.6,2.9C27.8,33,26.4,33.6,24.2,33.6z M33.6,34.6
		c0,5.5,4.1,10.3,9.7,10.3c1.6,0,3-0.5,4.5-1.2V39c-1.1,1.2-2.7,2.1-4.4,2.1c-3.6,0-5.8-3.3-5.8-6.7c0-3.4,2.1-6.8,5.8-6.8
		c1.7,0,3.3,0.8,4.3,2.1v-4.6c-1.3-0.7-2.9-1.2-4.4-1.2C37.5,24,33.6,29,33.6,34.6z M61.5,32.3h-7.1v-7.8h-3.9v19.8h3.9v-8.8h7.1
		v8.8h3.9V24.5h-3.9V32.3z M75,24l-7.7,20.3h4.1l1.6-4.2h6.9l1.5,4.2h4.1L78,24H75z M74.1,37l2.2-7.2h0.1l2.5,7.2H74.1z M100.7,37.8
		L100.7,37.8L90.2,24h-2.8v20.3h3.9V30.9h0.1l10.4,13.8h2.8V24.5h-3.9V37.8z M118.5,24.5h-11.8v3.4h4v16.4h3.9V27.9h4V24.5z"/>
</svg>
