<svg xmlns="http://www.w3.org/2000/svg" width="566.104" height="240" viewBox="0 0 566.104 240"><path fill="#D1AD54" d="M56.964 84.88c-15.13 0-24.146 7.183-31.022 22.16h-.306V85.644l-15.893 4.28c-1.07.304-1.986.61-1.986.916 0 .306 1.07.918 2.292 1.223 2.597.917 5.195 2.904 5.195 5.96v44.317c0 14.06-1.375 19.408-6.265 21.853-1.528.613-2.598 1.377-2.598 1.988 0 .458 1.07.765 1.834.765 2.598 0 8.252-.307 13.6-.307s11.004.307 13.602.307c.764 0 1.222 0 1.222-.764 0-1.07-.917-1.68-2.598-1.833-6.113-.765-7.488-7.947-7.488-19.256v-9.32c0-24.146 4.126-39.58 16.963-39.58 4.126 0 6.418 2.444 8.252 3.973l5.194-15.282zm78.853 31.328c-1.834-20.63-20.936-31.327-40.803-31.327-26.743 0-43.094 20.937-43.094 40.956 0 23.228 17.574 43.095 41.26 43.095 20.478 0 37.747-10.544 43.4-28.575.46-1.224.765-2.6.765-3.82 0-.766-.306-1.376-1.223-1.376-1.222 0-1.833 1.22-1.986 2.138-.917 5.043-11.92 27.202-34.996 27.202-24.145 0-32.55-18.338-32.55-40.802 0-2.446.458-5.196.917-7.49h68.31zm-68.004-3.82C71.175 97.565 79.733 88.7 95.93 88.7c14.366 0 25.216 8.865 25.216 23.688H67.813zM213.6 91.298c-9.475-4.125-20.325-6.417-30.717-6.417-15.13 0-36.523 5.96-36.523 24.604 0 15.283 16.962 20.938 29.494 22.16 12.225.764 29.34.916 29.34 15.893 0 14.06-15.128 17.574-26.437 17.574-11.767 0-26.896-3.515-31.175-16.197-.764-1.987-1.07-3.21-1.834-3.21-.917 0-1.528 1.223-2.75 5.195l-3.21 9.934c11.92 6.725 25.827 8.1 39.275 8.1 16.504 0 38.357-8.252 38.357-27.966 0-16.963-17.268-18.644-30.105-19.866-11.31-.916-28.73-1.375-28.73-16.504 0-11.155 11.46-15.893 22.006-15.893 9.934 0 23.076 3.974 25.827 13.295.764 2.446 1.07 3.515 1.834 3.515.46 0 .918-.61 1.376-1.986L213.6 91.3zm24.296-4.125l-16.657 4.432c-.612.153-1.07.305-1.07.764 0 .457.61.61 1.375.916 2.445 1.375 5.043 1.834 5.043 4.89V142.8c0 13.6-.46 19.254-5.655 21.7-1.528.61-2.598 1.07-2.598 1.833 0 .61.46.61 1.223.61 1.68 0 4.89-.306 12.684-.306 4.432 0 10.086.307 12.684.307.764 0 1.834-.153 1.834-.61 0-.765-1.07-.918-2.445-1.224-3.668-1.07-6.42-8.71-6.42-25.674V87.173zm-5.654-25.98c-3.362 0-7.183 2.752-7.183 7.336 0 4.584 3.82 7.334 7.182 7.334 3.362 0 7.182-2.75 7.182-7.335s-3.82-7.336-7.182-7.336zm56.082 27.508c22.617 0 31.022 16.047 31.022 37.136 0 20.937-8.1 39.274-31.48 39.274-19.867 0-28.272-19.56-28.272-37.287 0-18.185 6.877-39.122 28.73-39.122zm24.757-27.66c-.763.307-1.375.612-1.375 1.224 0 .305.46.61 2.6 1.222 4.43 1.376 5.348 8.252 5.348 13.754v21.242c-6.113-6.113-17.42-13.6-30.258-13.6-25.368 0-44.47 16.962-44.47 42.94 0 23.993 18.338 41.108 42.483 41.108 14.365 0 24.91-7.03 32.245-19.103l3.668 16.81c2.14 0 4.432-.61 6.877-.61 2.14 0 4.432.61 6.877.61 1.07 0 1.376-.305 1.376-.916 0-.458-.917-1.222-2.14-2.14-3.668-2.598-5.35-11.46-5.35-30.715v-77.02l-17.88 5.196zM424.64 116.21c-1.834-20.63-20.937-31.327-40.804-31.327-26.743 0-43.094 20.937-43.094 40.956 0 23.228 17.574 43.095 41.26 43.095 20.48 0 37.747-10.544 43.4-28.575.46-1.224.765-2.6.765-3.82 0-.766-.306-1.376-1.223-1.376-1.222 0-1.833 1.22-1.986 2.138-.917 5.043-11.92 27.202-34.996 27.202-24.145 0-32.55-18.338-32.55-40.802 0-2.446.46-5.196.917-7.49h68.31zm-68.004-3.82c3.36-14.823 11.92-23.687 28.117-23.687 14.366 0 25.216 8.865 25.216 23.688h-53.332zm75.184-21.242c-.612.153-1.834.306-1.834.917 0 .46.764 1.223 1.986 1.528 2.75.918 5.195 3.058 5.195 14.673v34.23c0 8.56-.764 19.102-5.5 21.854-1.528.916-2.904 1.375-2.904 1.834 0 .61.612.765 1.377.765 2.598 0 8.252-.307 12.684-.307 4.432 0 10.087.307 12.684.307.766 0 1.224 0 1.224-.458 0-.306-1.224-.917-2.75-1.834-4.738-3.058-5.502-8.253-5.502-19.408V121.71c0-18.033 11.308-33.01 27.66-33.01 12.988 0 24.145 6.725 24.145 32.704v20.784c0 11.308-.763 19.56-5.653 22.31-.764.46-3.056 1.07-3.056 1.988 0 .305.917.458 2.14.458 2.14 0 7.794-.307 12.685-.307 4.89 0 10.544.307 12.225.307.612 0 1.53-.153 1.53-.61 0-.308-1.07-1.07-2.752-1.835-3.82-1.683-4.89-3.362-4.89-20.173v-29.952c0-22.006-17.27-29.494-33.315-29.494-13.753 0-27.2 6.878-31.48 19.867h-.46V87.173l-15.435 3.973zm99.33 4.432v53.792c0 15.893 3.21 17.268 11.004 17.268 3.21 0 6.418-.15 9.627-.305 1.986 0 2.597-.152 2.597-.61 0-.307-.152-.46-1.07-.612-9.474-2.444-10.85-20.782-10.85-42.788V95.578h14.977l.46-2.445c0-.306.15-.61.15-.764 0-.46-.61-.612-2.14-.612h-13.447v-21.09c0-1.68-.152-1.986-.764-1.986-.764 0-1.375.917-1.68 2.14-2.6 10.238-10.087 17.574-18.187 21.7-1.987 1.07-2.445 1.528-2.445 2.14 0 .916.766.916 2.904.916h8.865z"/><path fill="#DCDCDC" d="M4.935 46.364L3.633 50.88c-.04.162-.082.284-.082.406 0 .082 0 .163.083.163.163 0 .325-.204.53-.448 1.79-2.685 5.978-3.62 9.03-3.62 1.423 0 2.44.12 2.44 1.667v14.643c0 4.23-.53 7.85-2.156 8.258-.57.123-1.017.123-1.017.326 0 .122.04.244.366.244.407 0 1.505-.122 4.72-.122 2.846 0 3.823.122 4.107.122s.447-.04.447-.162c0-.082-.407-.244-1.017-.448-1.424-.488-1.952-2.4-1.952-7.485V49.05c0-1.547 1.018-1.67 2.44-1.67 3.052 0 7.242.937 9.032 3.622.203.244.366.447.53.447.08 0 .08-.082.08-.164 0-.122-.04-.244-.08-.407l-1.303-4.516H4.934zm32.95-3.457l-4.476 1.3c-.123 0-.367.164-.367.245 0 .163.203.204.366.244 1.138.204 1.463 1.1 1.463 2.197V68.33c0 1.343-.204 2.726-1.464 3.458-.408.244-.774.366-.774.488 0 .163.163.204.366.204.69 0 2.196-.082 3.376-.082s2.685.082 3.376.082c.203 0 .325 0 .325-.122 0-.082-.326-.244-.733-.49-1.26-.812-1.464-2.195-1.464-5.165V60.44c0-4.8 3.01-8.788 7.362-8.788 3.458 0 6.427 1.79 6.427 8.706v7.972c0 1.343-.203 2.767-1.342 3.54-.325.203-.69.244-.69.447 0 .163.12.163.284.163.57 0 2.075-.082 3.376-.082 1.3 0 2.807.082 3.254.082.163 0 .407-.04.407-.163 0-.08-.324-.203-.77-.448-.978-.49-1.262-2.197-1.262-5.41v-7.974c0-5.857-4.597-7.85-8.868-7.85-3.66 0-6.712 1.83-8.055 5.288h-.122V42.907zm43.2 16.067c-.49-5.49-5.574-8.34-10.862-8.34-7.12 0-11.47 5.574-11.47 10.903 0 6.183 4.677 11.47 10.982 11.47 5.45 0 10.047-2.805 11.552-7.605.122-.326.204-.692.204-1.017 0-.204-.08-.366-.325-.366-.325 0-.488.324-.53.568-.243 1.342-3.172 7.24-9.314 7.24-6.426 0-8.664-4.88-8.664-10.86 0-.65.122-1.383.244-1.994h18.184zM62.98 57.957c.895-3.945 3.173-6.305 7.485-6.305 3.824 0 6.712 2.36 6.712 6.305H62.98z"/></svg>