<svg xmlns="http://www.w3.org/2000/svg" viewBox="0 0 219.108 27.184">
  <g id="Group_42" data-name="Group 42" transform="translate(-0.075)">
    <path id="Path_1" data-name="Path 1" d="M299.548,12.433a8.575,8.575,0,0,1,3.315,11.452,8.293,8.293,0,0,1-5.183,4.189,8.477,8.477,0,0,1-6.57-.753c-.271.753-.452.9-1.266.9h-2.019A.922.922,0,0,1,286.8,27.2V8.546a6.907,6.907,0,1,1,13.8.512,6.153,6.153,0,0,1-.814,2.893A2.39,2.39,0,0,1,299.548,12.433ZM295.359,15.6a4.264,4.264,0,0,0-4.279,4.219,4.265,4.265,0,1,0,4.279-4.219Zm-4.279-6.9A2.652,2.652,0,1,0,293.7,6.074,2.624,2.624,0,0,0,291.079,8.7Z" transform="translate(-200.318 -1.253)"/>
    <path id="Path_2" data-name="Path 2" d="M4.362,27.31c-.241.723-.452.874-1.205.874h-1.9c-.874,0-1.175-.3-1.175-1.175V11.428c0-1.115-.03-2.26.03-3.375A6.927,6.927,0,0,1,6.2,1.815a6.935,6.935,0,0,1,7.474,5.244A6.732,6.732,0,0,1,13.041,12c-.09.151-.151.271-.241.452a8.572,8.572,0,0,1,3.074,11.874A8.589,8.589,0,0,1,4.362,27.31Zm4.219-3.164a4.264,4.264,0,1,0-4.249-4.309A4.27,4.27,0,0,0,8.581,24.146ZM4.332,8.686a2.63,2.63,0,0,0,2.622,2.652A2.676,2.676,0,0,0,9.605,8.686,2.643,2.643,0,0,0,6.984,6.064,2.611,2.611,0,0,0,4.332,8.686Z" transform="translate(0 -1.242)"/>
    <path id="Path_3" data-name="Path 3" d="M361.142,48.833a8.565,8.565,0,1,1-.03-13.621v-.723a.848.848,0,0,1,.934-.9h2.32a.9.9,0,0,1,1.025,1.025V49.1c0,.994-.271,1.266-1.266,1.266h-1.868c-.814,0-1.115-.331-1.115-1.145C361.142,49.1,361.142,48.983,361.142,48.833Zm-5.214-11.09a4.264,4.264,0,0,0,0,8.528,4.264,4.264,0,1,0,0-8.528Z" transform="translate(-242.655 -23.398)"/>
    <path id="Path_4" data-name="Path 4" d="M74.318,35.215v-.693a.9.9,0,0,1,.964-.964h2.351a.871.871,0,0,1,.964.9V49.439a.927.927,0,0,1-.964.934h-2.26a.917.917,0,0,1-1.055-1.055v-.482a8.509,8.509,0,0,1-7.685,1.356,8.249,8.249,0,0,1-4.551-3.315A8.572,8.572,0,0,1,62.746,36.3,8.687,8.687,0,0,1,74.318,35.215Zm-5.183,2.531a4.279,4.279,0,1,0,4.249,4.309A4.284,4.284,0,0,0,69.135,37.747Z" transform="translate(-42.261 -23.402)"/>
    <path id="Path_5" data-name="Path 5" d="M462.443,43.934a4.258,4.258,0,0,0,2.773,2.079,4.118,4.118,0,0,0,3.435-.663,1,1,0,0,1,1.477.121c.512.482,1.055.964,1.567,1.447a.931.931,0,0,1-.06,1.537,8.488,8.488,0,0,1-11.18-.3,8.152,8.152,0,0,1-2.441-8.679,8.087,8.087,0,0,1,6.75-6.027c4.34-.753,7.775,1.326,9.4,5.424a9.857,9.857,0,0,1,.633,4.068.905.905,0,0,1-1.025.964H463.015A3.282,3.282,0,0,1,462.443,43.934Zm-.121-3.707h7.745a4.189,4.189,0,0,0-7.745,0Z" transform="translate(-319.666 -23.261)"/>
    <path id="Path_6" data-name="Path 6" d="M198.624,43.851c.121.181.181.3.271.422a4.261,4.261,0,0,0,5.846,1.055c.663-.452.964-.422,1.567.121l1.447,1.356a.961.961,0,0,1-.03,1.657,8.517,8.517,0,0,1-11.15-.392,8.114,8.114,0,0,1-2.441-8.438,8.085,8.085,0,0,1,6.329-6.118c4.49-1.025,8.318,1.115,9.975,5.605a9.957,9.957,0,0,1,.512,3.857.89.89,0,0,1-.995.874H198.624Zm-.121-3.707h7.745c-.271-1.266-2.049-2.531-3.646-2.622A4.184,4.184,0,0,0,198.5,40.145Z" transform="translate(-135.346 -23.238)"/>
    <path id="Path_7" data-name="Path 7" d="M617.228,49.987a8.544,8.544,0,1,1,8.529-8.528A8.528,8.528,0,0,1,617.228,49.987Zm-.03-4.279a4.264,4.264,0,1,0-4.249-4.37A4.27,4.27,0,0,0,617.2,45.708Z" transform="translate(-425.21 -22.985)"/>
    <path id="Path_8" data-name="Path 8" d="M674.479,33.985a22.724,22.724,0,0,1,2.652-.874,8.494,8.494,0,0,1,9.975,6.479,10.556,10.556,0,0,1,.241,1.959c.03,2.411,0,4.792,0,7.2a.917.917,0,0,1-1.055,1.055h-2.17a.919.919,0,0,1-1.025-1.055c0-2.471.03-4.972-.03-7.444A4.2,4.2,0,0,0,679.3,37.24a4.312,4.312,0,0,0-4.611,3.315,5.191,5.191,0,0,0-.121,1.175v6.931c0,.814-.3,1.115-1.145,1.145h-2.17a.94.94,0,0,1-1.055-1.055V34.075a.94.94,0,0,1,1.055-1.055h2.019C674.118,32.99,674.389,33.232,674.479,33.985Z" transform="translate(-468.176 -23.015)"/>
    <path id="Path_9" data-name="Path 9" d="M566.841,49.126a12.313,12.313,0,0,1-6.389-2.019.935.935,0,0,1-.3-1.477c.3-.482.6-.934.9-1.416a.9.9,0,0,1,1.386-.331,8.729,8.729,0,0,0,4.159,1.447,6.24,6.24,0,0,0,1.507-.151,1.064,1.064,0,0,0,.844-.994.973.973,0,0,0-.633-1.055c-.663-.3-1.386-.542-2.079-.814-1.025-.362-2.109-.663-3.074-1.115a4.357,4.357,0,0,1-2.742-4.52,4.907,4.907,0,0,1,2.893-4.43,8.388,8.388,0,0,1,5.424-.482,11.636,11.636,0,0,1,3.285,1.205.922.922,0,0,1,.392,1.416c-.271.512-.542.994-.844,1.507a.9.9,0,0,1-1.416.452,9.091,9.091,0,0,0-3.044-1.025,4.2,4.2,0,0,0-1.507.09,1.024,1.024,0,0,0-.874.9,1.009,1.009,0,0,0,.6,1.055,18.709,18.709,0,0,0,1.778.784c1.145.452,2.32.844,3.436,1.356a4.256,4.256,0,0,1,2.592,2.953,5.061,5.061,0,0,1-3.918,6.3C568.469,48.945,567.655,49.006,566.841,49.126Z" transform="translate(-391.126 -22.034)"/>
    <path id="Path_10" data-name="Path 10" d="M132.011,13.471V25.8c0,.844-.3,1.145-1.145,1.145h-2.471a.9.9,0,0,1-.994-.994V.994A.9.9,0,0,1,128.394,0h2.592a.9.9,0,0,1,1.025,1.025Z" transform="translate(-88.954 0)"/>
    <path id="Path_11" data-name="Path 11" d="M437.3,14.2V1.785c0-.753.331-1.085,1.085-1.085H440.8c.814,0,1.145.3,1.145,1.115V26.466c0,.844-.3,1.145-1.145,1.145h-2.351c-.844,0-1.145-.3-1.145-1.115Z" transform="translate(-305.463 -0.489)"/>
    <path id="Path_12" data-name="Path 12" d="M414.1,14.241V1.885c0-.753.332-1.085,1.085-1.085h2.29c.964,0,1.266.271,1.266,1.236V26.6c0,.844-.3,1.145-1.145,1.145h-2.5a.879.879,0,0,1-.994-.994C414.1,22.558,414.1,18.4,414.1,14.241Z" transform="translate(-289.255 -0.559)"/>
    <path id="Path_13" data-name="Path 13" d="M154.971,13.871V26.227c0,.814-.3,1.115-1.115,1.115h-2.411c-.844,0-1.145-.3-1.145-1.115V1.515c0-.784.331-1.115,1.115-1.115h2.471a.917.917,0,0,1,1.055,1.055C154.971,5.614,154.971,9.742,154.971,13.871Z" transform="translate(-104.953 -0.279)"/>
    <path id="Path_14" data-name="Path 14" d="M524.609,34.015c.784-.271,1.507-.6,2.29-.814a7.98,7.98,0,0,1,4.37.09.9.9,0,0,1,.633,1.356c-.3.663-.6,1.356-.874,2.019a.945.945,0,0,1-1.266.633,4.237,4.237,0,0,0-4.972,3.134,13.631,13.631,0,0,0-.211,2.23c-.03,1.959,0,3.948,0,5.907,0,.753-.331,1.085-1.085,1.085h-2.109a.959.959,0,0,1-1.085-1.085V33.985c0-.753.362-1.085,1.115-1.085H523.4C524.248,32.96,524.549,33.2,524.609,34.015Z" transform="translate(-363.45 -22.985)"/>
    <path id="Path_15" data-name="Path 15" d="M178.36,42.548v7.323c0,.814-.3,1.115-1.115,1.115h-2.351a.9.9,0,0,1-.994-.934V35.405a1.888,1.888,0,0,1,.181-.814.8.8,0,0,1,.784-.392h2.471a.922.922,0,0,1,1.025,1.025Z" transform="translate(-121.441 -23.893)"/>
    <path id="Path_16" data-name="Path 16" d="M175.152,15.374a2.637,2.637,0,1,1,2.622-2.622A2.6,2.6,0,0,1,175.152,15.374Z" transform="translate(-120.463 -7.056)"/>
  </g>
</svg>
