<svg xmlns="http://www.w3.org/2000/svg" viewBox="0 0 20.365 23.746">
  <defs>
    <style>
      .cls-1 {
        fill: #fe409a;
      }
    </style>
  </defs>
  <g id="_ionicons_svg_md-pizza" transform="translate(-64 -32)">
    <path id="Path_36" data-name="Path 36" class="cls-1" d="M109.6,103.505A21.181,21.181,0,0,0,101.582,102a21.691,21.691,0,0,0-8.014,1.484c-.429.175-.811.477-.535,1.034s8.545,17.518,8.545,17.518l8.534-17.487A.757.757,0,0,0,109.6,103.505Zm-11.714,3.9a1.7,1.7,0,1,1,1.7-1.7A1.662,1.662,0,0,1,97.882,107.407Zm3.7,7.58a1.7,1.7,0,1,1,1.7-1.7A1.662,1.662,0,0,1,101.582,114.986Zm3.7-6.52a1.7,1.7,0,1,1,1.7-1.7A1.662,1.662,0,0,1,105.282,108.467Z" transform="translate(-27.405 -66.29)"/>
    <path id="Path_37" data-name="Path 37" class="cls-1" d="M83.766,33.8A26.824,26.824,0,0,0,74.177,32a26.268,26.268,0,0,0-9.589,1.77A.8.8,0,0,0,64,34.5l.514,1.277a.925.925,0,0,0,.8.435,1.039,1.039,0,0,0,.387-.08,23.706,23.706,0,0,1,16.962,0,.957.957,0,0,0,.387.08.91.91,0,0,0,.8-.429l.519-1.277C84.354,34.12,84.1,33.935,83.766,33.8Z"/>
  </g>
</svg>
