<svg xmlns="http://www.w3.org/2000/svg" viewBox="0 0 25.098 25.097">
  <defs>
    <style>
      .cls-1 {
        fill: #fe409a;
      }
    </style>
  </defs>
  <g id="Group_167" data-name="Group 167" transform="translate(-0.103 16.566) rotate(-45)">
    <g id="Group_16" data-name="Group 16">
      <path id="Path_21" data-name="Path 21" class="cls-1" d="M.236.469.189,3.38A2.8,2.8,0,0,1,3.054,6.245,3.027,3.027,0,0,1,.1,9.2L.049,12.113l16.3-.262.028-1.747,1.164-.019-.028,1.747,5.822-.093.047-2.911A2.8,2.8,0,0,1,20.52,5.964a3.027,3.027,0,0,1,2.958-2.958L23.524.1,17.7.189l-.028,1.747-1.164.019L16.538.208ZM16.491,3.119,17.656,3.1l-.037,2.329-1.164.019Zm-.056,3.493L17.6,6.593l-.037,2.329L16.4,8.941Z"/>
    </g>
  </g>
</svg>
